<svg id="Layer_1" xmlns="http://www.w3.org/2000/svg" viewBox="0 0 384 90"><style>.st0{fill:#cadd84}.st1{fill:#58a746}.st2{fill:#3c8d42}.st3{fill:#a0cd4e}.st11{fill:#243d81}</style><switch><g><path class="st0" d="M352.9 42.2c.4.1.8 0 1.2.1.8.1 1.5.2 2.3.5.8.2 1.5.5 2.2 1 .3.2.6.5.8.9.1.2.1.3.1.5v.7c-.1.4-.3.7-.6.9-.6.5-1.2.8-1.9 1-.8.3-1.7.5-2.6.6-.7.1-1.4.2-2 .2-.2 0-.5.1-.7 0-.6 0-1.2 0-1.8-.1-.8-.1-1.6-.2-2.3-.4-1-.2-1.9-.6-2.8-1.1-.3-.2-.5-.4-.7-.7-.1-.1-.1-.2-.2-.4v-.2-.5c.1-.8.7-1.1 1.3-1.5 1.1-.6 2.2-.9 3.4-1.1.6-.1 1.1-.1 1.7-.1H352.7c0-.3.1-.2.2-.3z"/><path class="st1" d="M359.5 56v.2c-.2.8-.8 1.2-1.5 1.5-.9.5-1.9.8-3 1-.6.1-1.3.2-1.9.2-.6 0-1.1.1-1.7.1-1.7-.1-3.4-.2-5-.8-.7-.2-1.4-.6-2-1-.3-.3-.6-.6-.6-1v-.1-.2-4-.2c.1-.1.2 0 .2.1.4.7 1.1 1.1 1.8 1.4 1.1.5 2.2.7 3.3.9.7.1 1.4.1 2.1.2.7 0 1.4 0 2.1-.1 1.3-.1 2.5-.3 3.7-.8.6-.2 1.2-.5 1.7-.9.2-.2.4-.4.5-.6 0-.1.1-.2.2-.2v4.2c.1 0 0 0 .1.1z"/><path class="st2" d="M353.1 64.8H350h-.5c-1.3-.1-2.5-.3-3.6-.8-.7-.3-1.4-.6-1.9-1.2-.2-.2-.3-.4-.3-.7V58v-.5c.1-.1.2 0 .2.1.4.8 1.2 1.1 1.9 1.5 1.1.5 2.2.7 3.3.8 1.1.1 2.1.2 3.2.1 1.6-.1 3.2-.3 4.8-.9.6-.3 1.3-.6 1.8-1.1.1-.1.2-.3.3-.5 0-.1.1-.2.2-.1V62c-.1.8-.7 1.2-1.3 1.5-.9.5-1.9.8-3 1-.5.1-1.1.2-1.6.2h-.3c0 .1-.1 0-.1.1z"/><path class="st3" d="M343.9 45.8c.3.6.8 1 1.4 1.3.9.5 1.9.8 2.9 1l2.1.3c.7 0 1.4.1 2.1 0 .9 0 1.9-.2 2.8-.3.8-.2 1.6-.4 2.4-.7.6-.3 1.2-.6 1.6-1.1.1-.1.2-.3.2-.5.1 0 .1.1.1.2V50.4c-.1.8-.7 1.1-1.2 1.5-.9.6-1.9.8-2.9 1.1-.9.2-1.7.3-2.6.3-.6 0-1.2.1-1.8 0-1.5-.1-3.1-.3-4.5-.8-.7-.2-1.3-.5-1.9-1-.3-.3-.6-.6-.7-1v-.2-.2-4c-.1-.2-.2-.3 0-.3z"/><path class="st2" d="M343.8 62.1s0-.1-.1-.1v-4.7c.1 0 0 .1.1.1-.1.1 0 .1 0 .2v4.5z"/><path class="st3" d="M359.5 50.2c-.1-.1 0-.2 0-.2v-4-.2-.2 4.6z"/><path class="st2" d="M359.4 57.4c0-.1 0-.1 0 0 0-.1 0-.2.1-.2v4.7c-.1 0 0-.1 0-.2v-4.1c-.1-.1 0-.2-.1-.2z"/><path class="st1" d="M359.4 51.5c0-.1 0-.1.1-.2v4.6c-.1-.1 0-.2 0-.2v-4c-.1 0 0-.1-.1-.2z"/><path class="st3" d="M343.9 45.8c-.1.1 0 .2 0 .2v-.5c-.1.1-.1.2 0 .3z"/><path class="st1" d="M343.9 51.5s0 .1 0 0c-.1.1 0 .2 0 .3V56c-.1-1.5-.1-3 0-4.5-.1-.1-.1 0 0 0z"/><path class="st2" d="M350.8 64.7h1.6c-.5.1-1.1.1-1.6 0z"/><path d="M352.3 42.3h-1.4c.5-.1 1-.1 1.4 0 .1-.1.1-.1 0 0z" fill="#cddf8c"/><path d="M343.8 45c.1.2.1.4 0 .5V45z" fill="#cddf8d"/><path class="st2" d="M352.4 64.8c0-.1 0-.1 0 0h.3-.3zM350.8 64.7h-.3.3z"/><path d="M350.9 42.2h-.3.3z" fill="#d8e5a4"/><path d="M352.3 42.3c0-.1 0-.1 0 0h.3-.3z" fill="#d8e6a5"/><path d="M352.6 42.3c0-.1 0-.1 0 0h.3c-.1 0-.2-.1-.3 0z" fill="#e3ecc0"/><path class="st0" d="M359.5 45.5c0-.1-.1-.2 0-.3v.3z"/><path d="M350.6 42.2h-.2.2z" fill="#e2ecbe"/><path class="st2" d="M350.5 64.7h-.2.2z"/><path d="M350.4 42.2h-.2.2z" fill="#eef4db"/><path class="st2" d="M352.7 64.8c0-.1 0-.1 0 0 .1 0 .1-.1.2 0h-.2zM350 64.7h-.4.4zM353.6 64.7c-.1.1-.2 0-.4 0h.4z"/><path class="st3" d="M13 73.6v-7.3c6.4 2.3 13.4 3.4 20.9 3.4 10.6 0 15.9-3.9 15.9-11.6 0-6.6-3.9-9.9-11.7-9.9h-7.9c-12.9 0-19.3-5.6-19.3-16.8 0-11.7 8.2-17.6 24.7-17.6 7.2 0 13.8.9 20 2.6v7.3c-6.2-2.3-12.8-3.4-20-3.4-11.2 0-16.8 3.7-16.8 11.2 0 6.6 3.8 9.9 11.3 9.9H38c13.1 0 19.6 5.6 19.6 16.8 0 12-7.9 18-23.8 18-7.4 0-14.3-.9-20.8-2.6zM63.1 14.3h8.8l17.7 32.1 18-32.1h9.2l-23.5 40v21.5h-7.9V54.2L63.1 14.3zM125.2 75.7V14.3h7.9l37.6 49.5V14.3h7.5v61.4h-7.9l-37.6-49.9v49.9h-7.5zM234.3 14.3v6.4H215v55h-8v-55h-19.3v-6.4h46.6zM243.8 75.7V14.3h7.9v27.1H288V14.3h7.9v61.4H288V47.8h-36.3v27.9h-7.9z"/><path class="st11" d="M318.5 14.3v7.5h-7.9v-7.5h7.9zm0 16.3v45.1h-7.9V30.6h7.9zM330.1 53.2c0-15 7.2-22.6 21.5-22.6s21.5 7.5 21.5 22.6c0 15-7.2 22.5-21.5 22.5-14.2 0-21.4-7.5-21.5-22.5zm21.5 16.1c9 0 13.5-5.4 13.5-16.3 0-10.6-4.5-15.9-13.5-15.9s-13.5 5.3-13.5 15.9c0 10.8 4.5 16.3 13.5 16.3z"/></g></switch></svg>