<?xml version="1.0" encoding="UTF-8"?>
<svg width="199px" height="34px" viewBox="0 0 199 34" version="1.1" xmlns="http://www.w3.org/2000/svg" xmlns:xlink="http://www.w3.org/1999/xlink">
    <!-- Generator: Sketch 59.1 (86144) - https://sketch.com -->
    <title>synthiologo</title>
    <desc>Created with Sketch.</desc>
    <g id="Page-1" stroke="none" stroke-width="1" fill="none" fill-rule="evenodd">
        <g id="synthio_homepage_redesign_20191020-v4" transform="translate(-135.000000, -57.000000)" fill="#243C81" fill-rule="nonzero">
            <g id="nav" transform="translate(134.316895, 4.622101)">
                <g id="synthiologo" transform="translate(0.683105, 52.377899)">
                    <path d="M198.475,16.946875 C198.475,19.390625 198.315625,21.621875 197.94375,23.640625 C197.571875,25.659375 196.88125,27.4125 195.81875,28.9 C194.75625,30.334375 193.26875,31.503125 191.409375,32.3 C189.496875,33.096875 187.053125,33.521875 183.971875,33.521875 C180.890625,33.521875 178.446875,33.096875 176.534375,32.3 C174.621875,31.503125 173.1875,30.334375 172.125,28.9 C171.0625,27.465625 170.371875,25.7125 170,23.640625 C169.628125,21.621875 169.46875,19.390625 169.46875,16.946875 C169.46875,14.503125 169.628125,12.325 170,10.30625 C170.371875,8.2875 171.0625,6.534375 172.125,5.1 C173.1875,3.665625 174.675,2.496875 176.534375,1.7 C178.446875,0.903125 180.890625,0.478125 183.971875,0.478125 C187.053125,0.478125 189.496875,0.903125 191.409375,1.7 C193.321875,2.496875 194.75625,3.665625 195.81875,5.1 C196.88125,6.534375 197.571875,8.2875 197.94375,10.30625 C198.315625,12.325 198.475,14.55625 198.475,16.946875 Z M194.065625,16.946875 C194.065625,14.98125 193.959375,13.175 193.8,11.58125 C193.5875,9.9875 193.1625,8.60625 192.525,7.490625 C191.834375,6.375 190.825,5.525 189.496875,4.940625 C188.16875,4.35625 186.3625,4.0375 184.078125,4.0375 C181.79375,4.0375 179.934375,4.35625 178.60625,4.940625 C177.278125,5.525 176.26875,6.428125 175.63125,7.54375 C174.940625,8.659375 174.515625,10.040625 174.35625,11.634375 C174.14375,13.228125 174.090625,15.034375 174.090625,17 C174.090625,18.965625 174.196875,20.771875 174.35625,22.365625 C174.56875,23.959375 174.99375,25.340625 175.63125,26.45625 C176.26875,27.571875 177.278125,28.421875 178.60625,29.00625 C179.934375,29.590625 181.740625,29.909375 184.078125,29.909375 C186.3625,29.909375 188.16875,29.590625 189.496875,29.00625 C190.825,28.421875 191.834375,27.51875 192.525,26.403125 C193.215625,25.2875 193.640625,23.90625 193.8,22.3125 C193.959375,20.771875 194.065625,18.965625 194.065625,16.946875 Z" id="Shape"></path>
                    <path d="M1.328125,32.19375 L1.328125,28.315625 C4.728125,29.5375 8.446875,30.121875 12.43125,30.121875 C18.0625,30.121875 20.878125,28.05 20.878125,23.959375 C20.878125,20.453125 18.80625,18.7 14.6625,18.7 L10.465625,18.7 C3.6125,18.7 0.2125,15.725 0.2125,9.775 C0.2125,3.559375 4.56875,0.425 13.334375,0.425 C17.159375,0.425 20.665625,0.903125 23.959375,1.80625 L23.959375,5.684375 C20.665625,4.4625 17.159375,3.878125 13.334375,3.878125 C7.384375,3.878125 4.409375,5.84375 4.409375,9.828125 C4.409375,13.334375 6.428125,15.0875 10.4125,15.0875 L14.609375,15.0875 C21.56875,15.0875 25.021875,18.0625 25.021875,24.0125 C25.021875,30.3875 20.825,33.575 12.378125,33.575 C8.446875,33.575 4.78125,33.096875 1.328125,32.19375 Z" id="Path"></path>
                    <polygon id="Path" points="27.94375 0.690625 32.61875 0.690625 42.021875 17.74375 51.584375 0.690625 56.471875 0.690625 43.9875 21.940625 43.9875 33.3625 39.790625 33.3625 39.790625 21.8875"></polygon>
                    <path d="M60.934375,33.309375 L60.934375,0.690625 L65.13125,0.690625 L85.10625,26.9875 L85.10625,0.690625 L89.090625,0.690625 L89.090625,33.309375 L84.89375,33.309375 L64.91875,6.8 L64.91875,33.309375 C64.91875,33.309375 60.934375,33.309375 60.934375,33.309375 Z" id="Path"></path>
                    <path d="M118.89375,0.690625 L118.89375,4.090625 L108.640625,4.090625 L108.640625,33.309375 L104.390625,33.309375 L104.390625,4.090625 L94.1375,4.090625 L94.1375,0.690625 C94.1375,0.690625 118.89375,0.690625 118.89375,0.690625 Z" id="Path"></path>
                    <polygon id="Path" points="123.940625 33.309375 123.940625 0.690625 128.1375 0.690625 128.1375 15.0875 147.421875 15.0875 147.421875 0.690625 151.61875 0.690625 151.61875 33.309375 147.421875 33.309375 147.421875 18.4875 128.1375 18.4875 128.1375 33.309375 123.940625 33.309375"></polygon>
                    <rect id="Rectangle" x="159.428125" y="0.690625" width="4.196875" height="32.61875"></rect>
                </g>
            </g>
        </g>
    </g>
</svg>